<svg xmlns="http://www.w3.org/2000/svg" viewBox="0 0 111 111"><defs><style>.cls-1{fill:#0fff9b;}</style></defs><title>content</title><g id="Layer_2" data-name="Layer 2"><g id="Layer_1-2" data-name="Layer 1"><g id="computer-file-globe-Digital_Marketing" data-name="computer-file-globe-Digital Marketing"><path class="cls-1" d="M24.05,9.25H40.7V13H24.05Z"/><path class="cls-1" d="M24.05,16.65h37v3.7h-37Z"/><path class="cls-1" d="M24.05,24.05H29.6v3.7H24.05Z"/><path class="cls-1" d="M33.3,24.05H61.05v3.7H33.3Z"/><path class="cls-1" d="M24.05,31.45H33.3v3.7H24.05Z"/><path class="cls-1" d="M37,31.45H51.8v3.7H37Z"/><path class="cls-1" d="M24.05,38.85H51.8v3.7H24.05Z"/><path class="cls-1" d="M24.05,46.25H51.8V50H24.05Z"/><path class="cls-1" d="M105.45,24.05H96.74A23.89,23.89,0,0,0,74,19.68v-3H87A1.85,1.85,0,0,0,88.8,14.8V9.25A9.25,9.25,0,0,0,79.55,0H25.9A11.1,11.1,0,0,0,14.8,11.1v13H5.55A5.57,5.57,0,0,0,0,29.6V88.8a5.57,5.57,0,0,0,5.55,5.55H48.1V99.9H37a1.85,1.85,0,0,0-1.85,1.85v7.4A1.85,1.85,0,0,0,37,111H74a1.85,1.85,0,0,0,1.85-1.85v-7.4A1.85,1.85,0,0,0,74,99.9H62.9V94.35h42.55A5.57,5.57,0,0,0,111,88.8V29.6A5.57,5.57,0,0,0,105.45,24.05ZM74,9.25a5.55,5.55,0,1,1,11.1,0V13H74ZM97.44,30.08a20.33,20.33,0,0,1,4.22,10.62H94.29a40.36,40.36,0,0,0-1.29-9A28.28,28.28,0,0,0,97.44,30.08ZM93,53.35a40.36,40.36,0,0,0,1.29-9h7.37A20.33,20.33,0,0,1,97.44,55,28.28,28.28,0,0,0,93,53.35Zm1.74,4.54a21.17,21.17,0,0,1-5,3.22,23.37,23.37,0,0,0,2.13-4.24,24.78,24.78,0,0,1,2.89,1Zm0-30.68a24.78,24.78,0,0,1-2.89,1A23.37,23.37,0,0,0,89.72,24a21.17,21.17,0,0,1,5,3.22ZM83.25,22.7a12.31,12.31,0,0,1,4.94,6.35,41.11,41.11,0,0,1-4.94.49Zm0,10.54a39.74,39.74,0,0,0,6.16-.66,37.1,37.1,0,0,1,1.18,8.12H83.25Zm0,11.16h7.34a37.1,37.1,0,0,1-1.18,8.12,39.74,39.74,0,0,0-6.16-.66Zm0,11.16a39.18,39.18,0,0,1,4.94.5,12.32,12.32,0,0,1-4.94,6.34ZM79.55,22.7v6.84a41.11,41.11,0,0,1-4.94-.49,12.31,12.31,0,0,1,4.94-6.35Zm0,10.54V40.7H72.21a37.1,37.1,0,0,1,1.18-8.12,39.74,39.74,0,0,0,6.16.66ZM73.39,52.52a37.1,37.1,0,0,1-1.18-8.12h7.34v7.46a39.74,39.74,0,0,0-6.16.66Zm6.16,3V62.4a12.32,12.32,0,0,1-4.94-6.34A39.18,39.18,0,0,1,79.55,55.56Zm-11-11.16a40.36,40.36,0,0,0,1.29,9A28.28,28.28,0,0,0,65.36,55,20.33,20.33,0,0,1,61.14,44.4Zm-7.37-3.7a20.33,20.33,0,0,1,4.22-10.62,28.28,28.28,0,0,0,4.44,1.67,40.36,40.36,0,0,0-1.29,9ZM71,56.87a24,24,0,0,0,2.12,4.24,21.31,21.31,0,0,1-5-3.22,24.78,24.78,0,0,1,2.89-1Zm0-28.64a24.78,24.78,0,0,1-2.89-1,21.31,21.31,0,0,1,5-3.22A24,24,0,0,0,71,28.23ZM18.5,11.1a7.4,7.4,0,0,1,7.4-7.4H72.21A9.14,9.14,0,0,0,70.3,9.25v12a24,24,0,0,0,0,42.62V70.3a5.55,5.55,0,0,1-11.1,0V64.75a1.85,1.85,0,0,0-1.85-1.85H18.5Zm37,55.5v3.7a9.14,9.14,0,0,0,1.91,5.55H16.65A5.57,5.57,0,0,1,11.1,70.3V66.6Zm16.65,37v3.7H38.85v-3.7ZM51.8,99.9V94.35h7.4V99.9Zm55.5-11.1a1.85,1.85,0,0,1-1.85,1.85H5.55A1.85,1.85,0,0,1,3.7,88.8V87H107.3Zm0-5.55H3.7V29.6a1.85,1.85,0,0,1,1.85-1.85H14.8V62.9H9.25A1.85,1.85,0,0,0,7.4,64.75V70.3a9.25,9.25,0,0,0,9.25,9.25h48.1A9.25,9.25,0,0,0,74,70.3V65.42a24,24,0,0,0,26.33-37.67h5.12a1.85,1.85,0,0,1,1.85,1.85Z"/></g></g></g></svg>