<svg xmlns="http://www.w3.org/2000/svg" viewBox="0 0 105.87 105.87"><defs><style>.cls-1{fill:#0fff9b;}</style></defs><title>digital</title><g id="Layer_2" data-name="Layer 2"><g id="Layer_1-2" data-name="Layer 1"><g id="Outline"><path class="cls-1" d="M8.82,42.35a5.32,5.32,0,0,1,5.3-5.3H33.53V33.53H14.12a8.84,8.84,0,0,0-8.83,8.82V52.93H8.82Z"/><path class="cls-1" d="M50.29,15.88a6.18,6.18,0,1,0,6.17,6.18A6.18,6.18,0,0,0,50.29,15.88Zm0,8.82a2.65,2.65,0,1,1,2.64-2.64A2.65,2.65,0,0,1,50.29,24.7Z"/><path class="cls-1" d="M104.1,0H66.75a10.65,10.65,0,0,0-9.08,5.14L55.46,8.82H42.35a5.32,5.32,0,0,0-5.3,5.3V45.88a5.31,5.31,0,0,0,5.3,5.29H52.93v7.06A1.76,1.76,0,0,0,54.7,60a1.75,1.75,0,0,0,1.13-.41l10.1-8.41H90a5.29,5.29,0,0,0,5.29-5.29V20.83a18.78,18.78,0,0,0,9.82-5.22l.25-.25a1.77,1.77,0,0,0,.52-1.24V1.76A1.76,1.76,0,0,0,104.1,0ZM91.75,45.88A1.76,1.76,0,0,1,90,47.64H65.29a1.76,1.76,0,0,0-1.13.41l-7.7,6.41V49.41a1.76,1.76,0,0,0-1.76-1.77H42.35a1.76,1.76,0,0,1-1.77-1.76V43.35l15.83-9.5,15,10a1.76,1.76,0,0,0,1.76.11l9.67-4.84,9,6Zm0-5.06-7.84-5.23a1.73,1.73,0,0,0-1.77-.11l-9.67,4.83-15-10a1.75,1.75,0,0,0-1.88,0l-15,9V14.12a1.77,1.77,0,0,1,1.77-1.77h27.5l-5.78,5.78a6.13,6.13,0,0,0,8.67,8.67l8.65-8.65a18.88,18.88,0,0,0,10.29,3h.07Zm10.59-27.44A15.47,15.47,0,0,1,83.1,15.05l-.95-.64a1.78,1.78,0,0,0-2.23.22l-9.67,9.68a2.61,2.61,0,0,1-3.93-3.41,3.2,3.2,0,0,1,.25-.27l8.79-8.79,3.53-3.53-2.5-2.5-3,3H59.58L60.7,7a7.1,7.1,0,0,1,6-3.43h35.59Z"/><path class="cls-1" d="M100.58,56.46H68.82a5.32,5.32,0,0,0-5.3,5.3v9.85L57,78.15a1.77,1.77,0,0,0,1.25,3h5.29v1.76a5.3,5.3,0,0,0,5.3,5.29h31.76a5.29,5.29,0,0,0,5.29-5.29V61.76a5.31,5.31,0,0,0-5.29-5.3Zm1.76,26.47a1.77,1.77,0,0,1-1.76,1.77H68.82a1.77,1.77,0,0,1-1.77-1.77V79.4a1.76,1.76,0,0,0-1.76-1.76h-2.8l4-4a1.77,1.77,0,0,0,.52-1.25V61.76A1.77,1.77,0,0,1,68.82,60h31.76a1.76,1.76,0,0,1,1.76,1.77Z"/><path class="cls-1" d="M70.58,63.52H88.22v3.53H70.58Z"/><path class="cls-1" d="M91.75,63.52h7.06v3.53H91.75Z"/><path class="cls-1" d="M70.58,77.64H98.81v3.53H70.58Z"/><path class="cls-1" d="M70.58,70.58H98.81v3.53H70.58Z"/><path class="cls-1" d="M12.35,40.58h3.53v3.53H12.35Z"/><path class="cls-1" d="M19.41,40.58h3.53v3.53H19.41Z"/><path class="cls-1" d="M26.47,40.58H30v3.53H26.47Z"/><path class="cls-1" d="M12.35,47.64H33.53v3.53H12.35Z"/><path class="cls-1" d="M5.29,88.22H37.05a5.3,5.3,0,0,0,5.3-5.29V75.87h5.29a1.76,1.76,0,0,0,1.25-3l-6.54-6.54V61.76a5.32,5.32,0,0,0-5.3-5.3H5.29A5.31,5.31,0,0,0,0,61.76V82.93a5.29,5.29,0,0,0,5.29,5.29ZM3.53,61.76A1.76,1.76,0,0,1,5.29,60H37.05a1.77,1.77,0,0,1,1.77,1.77v5.29a1.73,1.73,0,0,0,.52,1.25l4,4h-2.8a1.76,1.76,0,0,0-1.76,1.77v8.82a1.77,1.77,0,0,1-1.77,1.77H5.29a1.77,1.77,0,0,1-1.76-1.77Z"/><path class="cls-1" d="M7.06,63.52h3.53v3.53H7.06Z"/><path class="cls-1" d="M7.06,70.58h3.53v3.53H7.06Z"/><path class="cls-1" d="M7.06,77.64h3.53v3.53H7.06Z"/><path class="cls-1" d="M14.12,63.52H35.29v3.53H14.12Z"/><path class="cls-1" d="M14.12,70.58H35.29v3.53H14.12Z"/><path class="cls-1" d="M14.12,77.64H35.29v3.53H14.12Z"/><path class="cls-1" d="M90,91.75H59A7.79,7.79,0,0,0,53.45,94a4.17,4.17,0,0,1-3,1.25H41.31a4.17,4.17,0,0,1-3-1.25,7.79,7.79,0,0,0-5.51-2.28h-31A1.76,1.76,0,0,0,0,93.52v5.29a7.07,7.07,0,0,0,7.06,7.06H84.7a7.06,7.06,0,0,0,7-7.06V93.52A1.76,1.76,0,0,0,90,91.75Zm-1.77,7.06a3.53,3.53,0,0,1-3.52,3.53H7.06a3.53,3.53,0,0,1-3.53-3.53V95.28H32.79a4.28,4.28,0,0,1,3,1.25,7.68,7.68,0,0,0,5.5,2.28h9.13A7.7,7.7,0,0,0,56,96.53a4.24,4.24,0,0,1,3-1.25H88.22Z"/></g></g></g></svg>