<svg xmlns="http://www.w3.org/2000/svg" viewBox="0 0 143.57 107.23"><defs><style>.cls-1{fill:#0fff9b;}</style></defs><title>live</title><g id="Layer_2" data-name="Layer 2"><g id="Layer_1-2" data-name="Layer 1"><path class="cls-1" d="M139.76,38a4.73,4.73,0,0,0-2.41.7L113.84,52.29V39a4.91,4.91,0,0,0-4.91-4.9H32A13.22,13.22,0,0,0,8.75,42.76v17H3.87A3.85,3.85,0,0,0,0,64,22.1,22.1,0,0,0,19.88,83.81v9.67H7.12a4.91,4.91,0,0,0-4.91,4.91v3.93a4.91,4.91,0,0,0,4.91,4.91H21.59a2.11,2.11,0,0,0,0-4.21H7.12a.71.71,0,0,1-.7-.7V98.39a.71.71,0,0,1,.7-.7H36.85a.71.71,0,0,1,.7.7v3.93a.71.71,0,0,1-.7.7H31.4a2.11,2.11,0,0,0,0,4.21h5.45a4.92,4.92,0,0,0,4.89-4.59h67.19a4.92,4.92,0,0,0,4.91-4.91V84.46L137.35,98a4.81,4.81,0,0,0,2.41.69h0a3.59,3.59,0,0,0,2.87-1.36,4.6,4.6,0,0,0,.94-2.92V42.3c0-2.52-1.57-4.28-3.81-4.28ZM13,42.76a9,9,0,0,1,18.06,0V54.61H13Zm0,16.06H31v3a9,9,0,0,1-18.06,0v-3ZM10,75A17.82,17.82,0,0,1,4.24,63.94H8.92a13.23,13.23,0,0,0,26.13,0h4.67A17.85,17.85,0,0,1,10,75Zm99.69,22.7a.72.72,0,0,1-.71.7H41.75v0a4.91,4.91,0,0,0-4.9-4.91H24.09V83.81A22.13,22.13,0,0,0,44,64a3.89,3.89,0,0,0-1-3,3.85,3.85,0,0,0-2.86-1.27H35.22v-17a13.32,13.32,0,0,0-.77-4.44h74.48a.72.72,0,0,1,.71.7Zm29.72-3.39-10-5.76V79.69a2.11,2.11,0,0,0-4.21,0v6.47l-11.34-6.55V57.15l11.34-6.55V69.88a2.11,2.11,0,0,0,4.21,0V48.17l10-5.76Z"/><path class="cls-1" d="M84.2,65.16,58.52,50.49a4.24,4.24,0,0,0-2.12-.6,3.54,3.54,0,0,0-3.46,3.84V83a3.54,3.54,0,0,0,3.46,3.84,4.26,4.26,0,0,0,2.12-.61L84.2,71.59a3.54,3.54,0,0,0,0-6.43Zm-27.06,17V54.55L81.35,68.38Z"/><path class="cls-1" d="M24.63,39.07h-5.3a2.1,2.1,0,1,0,0,4.2h5.3a2.1,2.1,0,1,0,0-4.2Z"/><path class="cls-1" d="M24.63,46.84h-5.3a2.1,2.1,0,1,0,0,4.2h5.3a2.1,2.1,0,1,0,0-4.2Z"/><path class="cls-1" d="M71.78,25a8.48,8.48,0,0,0-6.2,2.73,2.1,2.1,0,0,0,.13,3,2,2,0,0,0,1.42.56,2.11,2.11,0,0,0,1.55-.68,4.2,4.2,0,0,1,6.21,0A2.1,2.1,0,0,0,78,27.71,8.45,8.45,0,0,0,71.78,25Z"/><path class="cls-1" d="M81,24.92a2.06,2.06,0,0,0,1.55.68,2.09,2.09,0,0,0,1.54-3.52,16.73,16.73,0,0,0-24.66,0,2.1,2.1,0,1,0,3.1,2.84,12.53,12.53,0,0,1,18.47,0Z"/><path class="cls-1" d="M74.33,12.69a2.11,2.11,0,0,0,.51-4.18,25.91,25.91,0,0,0-3.06-.18,25.16,25.16,0,0,0-18.45,8.11,2.1,2.1,0,0,0,.12,3,2.06,2.06,0,0,0,1.42.56,2.09,2.09,0,0,0,1.55-.68,21,21,0,0,1,15.36-6.76A21.55,21.55,0,0,1,74.33,12.69Z"/><path class="cls-1" d="M87.14,19.29a2.11,2.11,0,0,0,1.55.68,2.11,2.11,0,0,0,1.55-3.53A25.49,25.49,0,0,0,85,12.07a2.1,2.1,0,1,0-2.22,3.57,21.16,21.16,0,0,1,4.41,3.65Z"/><path class="cls-1" d="M48.75,14.33a2.05,2.05,0,0,0,1.54-.68,29.18,29.18,0,0,1,43,0,2.1,2.1,0,1,0,3.1-2.84,33.36,33.36,0,0,0-49.17,0,2.09,2.09,0,0,0,1.55,3.52Z"/></g></g></svg>