<svg xmlns="http://www.w3.org/2000/svg" viewBox="0 0 667.24 258.05"><defs><style>.cls-1{fill:#0fff9b;}</style></defs><title>logo_1</title><g id="Layer_2" data-name="Layer 2"><g id="Layer_1-2" data-name="Layer 1"><path class="cls-1" d="M78,48.69c-.73.87-1.54,1.69-2.19,2.62C70.06,59.44,64.3,67.57,58.63,75.76c-1.52,2.2-3.46,2.82-6.06,3.13-5.77.68-9.38-1.52-12.45-6.41C35.42,65,30,58,24.89,50.75A4.56,4.56,0,0,0,22.57,49c0,1-.13,2-.13,2.94q0,31.75,0,63.51c0,4.55-.63,5.17-5.2,5.17H4.32c-3.53,0-4.32-.8-4.32-4.43V7.24C0,3.11.6,2.52,4.75,2.52c4.56,0,9.12.11,13.68,0a4.09,4.09,0,0,1,4.08,2.36C30.53,18.24,38.63,31.61,46.7,45a18.27,18.27,0,0,0,1.12,1.73c2,2.51,4.06,2.49,5.75-.25,3.79-6.13,7.48-12.33,11.21-18.5C69.35,20.39,74,12.84,78.46,5.24a5,5,0,0,1,5-2.79c4.64.2,9.29,0,13.94.07,3.26,0,4.07.82,4.07,4.1q0,21.95,0,43.89v65.06c0,4.51-.54,5.05-5,5.05H83c-3.29,0-4.05-.76-4.05-4.1Q79,84.24,79,52c0-1-.09-2-.14-3Z"/><path class="cls-1" d="M65.17,192.8a37.1,37.1,0,0,1,15.09,16.14c9.55,20-2.71,44.2-24.59,48-5,.87-10.27.62-15.41.7-11.18.17-22.35.24-33.53.31-5.4,0-5.91-.53-5.91-5.81q0-53.18,0-106.36c0-5.85,0-5.85,5.71-5.85h30c26.14,0,42.56,28.29,29.64,51C65.82,191.49,65.57,192,65.17,192.8Zm-29,15.46v.21c-3.61,0-7.22-.06-10.83,0s-4.91,1.36-4.92,5c0,6.44,0,12.89,0,19.33,0,4.52,1.06,5.63,5.61,5.59,7.21-.07,14.42-.2,21.63-.33A14.56,14.56,0,0,0,61.9,224.6c.59-7.75-4.49-14.56-12.16-15.63C45.26,208.34,40.67,208.47,36.14,208.26Zm-15.77-34c0,3.36,0,6.71,0,10.07,0,3.18,1.31,4.6,4.46,4.66,4.05.08,8.1.14,12.13,0A14.9,14.9,0,0,0,51,175.32a14.5,14.5,0,0,0-12.23-15.43c-4.65-.65-9.42-.41-14.14-.48-3,0-4.23,1.25-4.28,4.23C20.33,167.16,20.38,170.69,20.37,174.22Z"/><path class="cls-1" d="M105.32,198.58q0-27,0-54c0-3.88.8-4.69,4.64-4.69h72.8c3.87,0,4.47.61,4.47,4.48s0,7.74,0,11.61c0,3.29-.63,4-3.89,4q-24.9,0-49.81,0c-6.78,0-7.2.39-7.2,7.08V187c0,3.83.7,4.54,4.79,4.55,13.34,0,26.68,0,40,0,4.1,0,4.38.3,4.38,4.4,0,3.87,0,7.74,0,11.62,0,2.95-.54,3.46-3.5,3.46H132c-4.5,0-5.63,1.13-5.65,5.63q0,7.23,0,14.46c0,4.87,1.09,6,5.86,6h51.12c4.44,0,5.09.63,5.11,5,0,3.87.05,7.75,0,11.62,0,3-.84,3.81-3.86,3.81q-37.56,0-75.12,0c-3.11,0-4.1-1-4.1-4.21Q105.32,225.95,105.32,198.58Z"/><path class="cls-1" d="M584.12,198.69q0-27.1,0-54.21c0-3.72.82-4.54,4.52-4.54H661.7c3.64,0,4.33.7,4.33,4.36,0,4,0,7.92,0,11.88,0,3.09-.67,3.84-3.77,3.84q-24.78,0-49.56,0c-7.31,0-7.57.25-7.57,7.48,0,6.46,0,12.91,0,19.36,0,3.92.68,4.66,4.68,4.67,13.43,0,26.85,0,40.27,0,4,0,4.22.26,4.24,4.27s0,7.74,0,11.62c0,3.13-.49,3.59-3.64,3.59H610.4c-3.94,0-5.24,1.25-5.27,5.24q-.06,7.74,0,15.49c.05,4.14,1.26,5.3,5.47,5.3H662.5c3.92,0,4.7.76,4.71,4.64,0,4,.06,8.08,0,12.13-.05,2.93-.89,3.66-4,3.66H588.33c-3.25,0-4.21-1-4.21-4.35Q584.11,225.93,584.12,198.69Z"/><path class="cls-1" d="M369.25,198.45q0-27,0-54c0-3.68.86-4.54,4.51-4.55h72.8c4,0,4.6.58,4.6,4.6,0,3.79,0,7.58,0,11.36,0,3.43-.64,4.13-4,4.13q-22.45,0-44.91,0c-2.5,0-5,0-7.49,0-3.25.09-4.43,1.19-4.45,4.36q-.09,11.61,0,23.23c0,3.15,1,3.89,4.69,3.9,10.75,0,21.51,0,32.26,0,3,0,6,.08,9,0,2.36-.07,3.24,1.05,3.22,3.27-.05,4.22,0,8.43,0,12.64,0,3.12-.51,3.59-3.64,3.59H396.32c-5,0-6.05,1-6.06,6q0,7.23,0,14.45c0,4.33,1.22,5.56,5.48,5.56h51.63c4.26,0,5,.69,5,4.89,0,4,.06,7.92,0,11.88,0,2.84-.93,3.67-3.75,3.67q-37.56,0-75.11,0c-3.27,0-4.22-1-4.22-4.35Q369.25,225.81,369.25,198.45Z"/><path class="cls-1" d="M450.7,61.38V115.6c0,3.87-.67,4.54-4.5,4.54q-36.54,0-73.07,0c-5.19,0-5.46-.27-5.46-5.33,0-3.62,0-7.23,0-10.85,0-3.31,1-4.26,4.32-4.26q25.83,0,51.65,0c5.13,0,6-.89,6-5.94s0-10,0-15c0-3.93-1.2-5.11-5.07-5.12h-40c-3.54,0-4-.47-4-4,0-3.79,0-7.58,0-11.36s.39-4.21,4.11-4.22c12.48,0,24.95-.08,37.43,0,9.16.07,7.48-.68,7.55-7.33.07-6,0-12.05,0-18.07,0-5.52-.43-6-6.06-6q-25,0-50.08,0c-4,0-4.76-.76-4.76-4.82,0-3.87,0-7.75,0-11.62,0-2.75,1-3.7,3.72-3.7h74.36c2.95,0,3.81.87,3.81,3.85q0,27.5,0,55Z"/><path class="cls-1" d="M178.66,0h15.75c3.68,0,4.78.83,5.67,4.25q14.55,55.52,29.11,111c.77,3,.47,3.39-2.52,3.41-4.9,0-9.81,0-14.71,0-2.49,0-3.75-1.18-4.35-3.48q-3.84-14.79-7.76-29.56c-.84-3.22-2.21-4.34-5.41-4.35q-15.87,0-31.76,0c-3,0-4.57,1.18-5.35,4.14-2.62,9.84-5.26,19.69-7.76,29.56-.66,2.6-2,3.75-4.69,3.7-4.81-.08-9.63,0-14.45,0-2.81,0-3.16-.49-2.43-3.26q10.71-40.87,21.44-81.73c2.64-10,5.36-20,7.92-30.06C158,1,159.56,0,162.14,0,167.65,0,173.16,0,178.66,0Zm-.09,63c3.6,0,7.21,0,10.82,0,3,0,4.21-1.67,3.44-4.51q-4.53-16.83-9.11-33.67c-.73-2.69-2.28-3.87-5-3.9-2.88,0-4.54,1.13-5.27,3.86q-4.51,17-9,34Q163.38,63,167.74,63C171.35,63.05,175,63,178.57,63Z"/><path class="cls-1" d="M250.7,1h9.48c5.24,0,10.49.06,15.74,0a5.19,5.19,0,0,1,4.44,2Q295.14,20.51,310,38c.39.46.7,1.11,1.19,1.33,1,.46,2.33,1.19,3.16.87A3.64,3.64,0,0,0,316,37.42c.15-5.85.07-11.7.07-17.55,0-5.08,0-10.16,0-15.23,0-3.11.55-3.67,3.55-3.68,5.16,0,10.32.12,15.48,0,2.45-.07,3.05.86,3.05,3.16q-.09,49.29-.05,98.6c0,4.3-.09,8.6,0,12.9.07,2.4-.94,3.19-3.22,3.16-4.9-.08-9.8,0-14.7,0-3.89,0-4.14-.32-4.14-4.12,0-11.1,0-22.2,0-33.3a10.93,10.93,0,0,0-3-7.71c-2.15-2.37-3.37-2.31-5.25.37Q300,85.16,292.19,96.37c-4.33,6.2-8.69,12.37-13,18.59a7.64,7.64,0,0,1-6.65,3.7c-6,0-12,.07-18.06,0-.84,0-2.09-.36-2.39-.94s.2-1.78.69-2.46Q273.31,86.56,294,57.94c1.44-2,1.48-3.22-.07-5.06Q273.18,28.36,252.59,3.72C252.06,3.09,251.64,2.36,250.7,1Z"/><path class="cls-1" d="M518.55,226c1-3.75,2.05-7.51,3.06-11.27Q531.33,178.88,541,143c.74-2.77,2.17-3.75,4.93-3.66,4.65.16,9.3,0,13.94.05,3.11,0,3.86.94,3,3.93q-5.61,20.7-11.27,41.4-9.46,34.69-18.92,69.4c-1,3.67-1.22,3.85-5.13,3.85-6.54,0-13.09-.07-19.62,0-2.55,0-3.81-.78-4.52-3.39q-14.86-55.18-29.91-110.33a14.15,14.15,0,0,1-.48-2.5c-.13-1.6.67-2.4,2.28-2.4,5.33,0,10.67,0,16,0,2.25,0,3.09,1.36,3.61,3.29q6.24,23.17,12.53,46.35c3,11.16,6,22.33,9,33.48a35.58,35.58,0,0,0,1.31,3.43Z"/><path class="cls-1" d="M213.79,198.7V144.75c0-4.2,1.12-5.32,5.31-5.32,4.65,0,9.3,0,13.94,0,4.32,0,5.33,1,5.33,5.24q0,43.11,0,86.21c0,1.21.17,2.87.94,3.52a7,7,0,0,0,4.16,1.4c12.39.1,24.78,0,37.16,0,4.82,0,5.7.86,5.7,5.67,0,4,0,7.92,0,11.87,0,3.46-1.22,4.63-4.66,4.63h-63c-3.8,0-4.94-1.11-4.94-4.85Z"/><path class="cls-1" d="M316.06,198.73V144c0-3.64.93-4.6,4.49-4.6q7.35,0,14.71,0c3.75,0,4.51.71,4.51,4.53q0,24.12,0,48.24,0,30.18,0,60.36c0,.86,0,1.72-.07,2.58a2.71,2.71,0,0,1-2.94,2.87c-5.84,0-11.69.05-17.54,0-2.56,0-3.2-1.76-3.19-4q0-21.28,0-42.57Z"/></g></g></svg>