<svg xmlns="http://www.w3.org/2000/svg" viewBox="0 0 344.51 133.24"><defs><style>.cls-1{fill:#0fff9b;}</style></defs><title>logo</title><g id="Layer_2" data-name="Layer 2"><g id="Layer_1-2" data-name="Layer 1"><path class="cls-1" d="M40.28,25.14c-.38.45-.8.87-1.13,1.35-3,4.2-5.95,8.4-8.88,12.63a3.89,3.89,0,0,1-3.13,1.61c-3,.35-4.84-.78-6.43-3.31-2.42-3.86-5.21-7.49-7.86-11.22a2.37,2.37,0,0,0-1.2-.9c0,.5-.06,1-.06,1.52q0,16.4,0,32.79c0,2.35-.32,2.67-2.69,2.67H2.23C.41,62.28,0,61.87,0,60V3.74C0,1.6.31,1.3,2.45,1.3c2.36,0,4.71.06,7.07,0a2.08,2.08,0,0,1,2.1,1.22C15.76,9.42,20,16.32,24.11,23.23a10.44,10.44,0,0,0,.58.89c1,1.3,2.09,1.28,3-.13,2-3.17,3.86-6.37,5.79-9.55,2.36-3.91,4.74-7.81,7.06-11.74a2.56,2.56,0,0,1,2.57-1.43c2.4.1,4.8,0,7.2,0,1.68,0,2.1.42,2.1,2.12q0,11.33,0,22.66V59.67c0,2.33-.28,2.61-2.58,2.61H42.88c-1.7,0-2.1-.39-2.1-2.12V26.84c0-.51-.05-1-.08-1.53Z"/><path class="cls-1" d="M33.65,99.55a19.14,19.14,0,0,1,7.79,8.33,17.59,17.59,0,0,1-12.7,24.79,51.28,51.28,0,0,1-7.95.36c-5.77.09-11.54.13-17.32.16-2.78,0-3.05-.27-3.05-3q0-27.45,0-54.91c0-3,0-3,3-3,5.15,0,10.31,0,15.46,0A17.64,17.64,0,0,1,34.14,98.61C34,98.87,33.86,99.15,33.65,99.55Zm-15,8v.11c-1.86,0-3.72,0-5.59,0s-2.53.7-2.54,2.59c0,3.33,0,6.66,0,10,0,2.33.55,2.91,2.89,2.89q5.6-.06,11.17-.17A7.52,7.52,0,0,0,32,116a7.39,7.39,0,0,0-6.28-8.07C23.37,107.57,21,107.64,18.66,107.53ZM10.52,90c0,1.74,0,3.47,0,5.2s.68,2.38,2.31,2.41c2.09,0,4.18.07,6.26,0a7.68,7.68,0,0,0,7.26-7,7.48,7.48,0,0,0-6.31-8,57.27,57.27,0,0,0-7.3-.25c-1.53,0-2.19.64-2.21,2.18C10.5,86.31,10.52,88.13,10.52,90Z"/><path class="cls-1" d="M54.38,102.53V74.67c0-2,.42-2.41,2.4-2.41H94.37c2,0,2.3.31,2.31,2.31v6c0,1.69-.33,2.05-2,2.06q-12.86,0-25.72,0c-3.5,0-3.72.2-3.72,3.66V96.55c0,2,.36,2.35,2.48,2.35,6.88,0,13.77,0,20.66,0,2.12,0,2.26.15,2.26,2.27s0,4,0,6c0,1.52-.28,1.78-1.81,1.79H68.15c-2.32,0-2.9.58-2.91,2.91,0,2.49,0,5,0,7.46s.56,3.07,3,3.07q13.2,0,26.4,0c2.29,0,2.63.33,2.64,2.59,0,2,0,4,0,6,0,1.57-.43,2-2,2H56.5c-1.61,0-2.11-.52-2.11-2.18Q54.38,116.66,54.38,102.53Z"/><path class="cls-1" d="M301.6,102.59q0-14,0-28c0-1.92.42-2.34,2.33-2.34q18.85,0,37.72,0c1.89,0,2.24.36,2.24,2.25s0,4.08,0,6.13c0,1.6-.35,2-1.95,2q-12.79,0-25.58,0c-3.78,0-3.91.13-3.91,3.86,0,3.33,0,6.67,0,10,0,2,.35,2.4,2.42,2.41h20.79c2.05,0,2.18.13,2.19,2.2s0,4,0,6c0,1.62-.26,1.85-1.88,1.86H315.17c-2,0-2.71.64-2.72,2.71,0,2.66,0,5.33,0,8,0,2.14.65,2.74,2.82,2.74h26.8c2,0,2.42.39,2.43,2.39s0,4.18,0,6.26c0,1.52-.46,1.9-2.07,1.9H303.77c-1.68,0-2.17-.52-2.17-2.25Q301.58,116.65,301.6,102.59Z"/><path class="cls-1" d="M190.66,102.46q0-13.92,0-27.85c0-1.91.44-2.35,2.33-2.35h37.59c2.07,0,2.37.31,2.37,2.38s0,3.91,0,5.87c0,1.77-.33,2.13-2.08,2.13q-11.6,0-23.19,0c-1.29,0-2.58,0-3.86,0-1.68,0-2.29.62-2.3,2.25q0,6,0,12c0,1.62.5,2,2.42,2h16.66c1.56,0,3.11,0,4.67,0,1.22,0,1.67.54,1.66,1.69,0,2.17,0,4.35,0,6.52,0,1.61-.26,1.86-1.88,1.86H204.63c-2.58,0-3.12.53-3.13,3.11v7.46c0,2.24.63,2.87,2.83,2.87H231c2.2,0,2.57.35,2.57,2.52s0,4.09,0,6.13c0,1.47-.48,1.9-1.94,1.9H192.84c-1.69,0-2.18-.52-2.18-2.25Q190.65,116.59,190.66,102.46Z"/><path class="cls-1" d="M232.71,31.69v28c0,2-.35,2.34-2.32,2.34H192.66c-2.68,0-2.82-.14-2.82-2.75,0-1.87,0-3.74,0-5.6s.51-2.2,2.23-2.2h26.67c2.65,0,3.12-.46,3.12-3.07s0-5.16,0-7.73c0-2-.62-2.64-2.62-2.64H198.58c-1.83,0-2.07-.25-2.07-2.08s0-3.91,0-5.87.21-2.17,2.13-2.17c6.44,0,12.88,0,19.32,0,4.73,0,3.86-.35,3.9-3.79,0-3.11,0-6.22,0-9.33,0-2.85-.22-3.09-3.12-3.09q-12.93,0-25.86,0c-2.08,0-2.46-.4-2.46-2.49s0-4,0-6c0-1.42.5-1.91,1.92-1.91q19.2,0,38.39,0c1.52,0,2,.44,2,2q0,14.2,0,28.4Z"/><path class="cls-1" d="M92.25,0h8.13c1.9,0,2.46.43,2.93,2.19l15,57.34c.4,1.52.24,1.75-1.3,1.75-2.53,0-5.07,0-7.6,0a2.08,2.08,0,0,1-2.25-1.8q-2-7.64-4-15.26c-.44-1.66-1.14-2.24-2.79-2.24H84a2.49,2.49,0,0,0-2.77,2.13c-1.35,5.09-2.71,10.17-4,15.27a2.16,2.16,0,0,1-2.42,1.91c-2.49,0-5,0-7.47,0-1.45,0-1.63-.25-1.25-1.68l11.07-42.2c1.36-5.17,2.77-10.34,4.09-15.52A2.22,2.22,0,0,1,83.72,0C86.56,0,89.4,0,92.25,0Zm0,32.53c1.86,0,3.72,0,5.59,0,1.53,0,2.17-.86,1.77-2.33q-2.34-8.68-4.7-17.38a2.41,2.41,0,0,0-2.57-2,2.44,2.44,0,0,0-2.72,2q-2.34,8.76-4.64,17.53c-.38,1.45.18,2.19,1.68,2.2C88.47,32.56,90.34,32.54,92.2,32.54Z"/><path class="cls-1" d="M129.44.5h4.9c2.71,0,5.42,0,8.12,0a2.68,2.68,0,0,1,2.3,1q7.63,9.06,15.3,18.09c.2.24.36.58.61.69.53.24,1.21.62,1.63.45a1.86,1.86,0,0,0,.85-1.43c.08-3,0-6,0-9.06,0-2.62,0-5.24,0-7.87,0-1.6.28-1.89,1.83-1.89,2.67,0,5.33.06,8,0,1.26,0,1.57.44,1.57,1.63q0,25.46,0,50.9c0,2.23,0,4.45,0,6.67,0,1.24-.49,1.65-1.66,1.63-2.53,0-5.06,0-7.59,0-2,0-2.14-.16-2.14-2.12,0-5.74,0-11.47,0-17.2a5.68,5.68,0,0,0-1.55-4c-1.11-1.22-1.74-1.19-2.71.19l-8.07,11.57c-2.24,3.2-4.49,6.39-6.71,9.6a3.94,3.94,0,0,1-3.44,1.91c-3.1,0-6.21,0-9.32,0-.43,0-1.08-.18-1.23-.48s.1-.92.35-1.27q10.6-14.83,21.26-29.61a1.76,1.76,0,0,0,0-2.61Q141.06,14.64,130.42,1.92C130.15,1.6,129.93,1.22,129.44.5Z"/><path class="cls-1" d="M267.74,116.67q.79-2.91,1.58-5.82,5-18.5,10-37A2.18,2.18,0,0,1,281.88,72c2.39.08,4.79,0,7.19,0,1.61,0,2,.48,1.58,2L284.83,95.4q-4.89,17.91-9.77,35.83c-.52,1.9-.63,2-2.65,2-3.38,0-6.76,0-10.13,0a2,2,0,0,1-2.33-1.75q-7.68-28.5-15.45-57a7.15,7.15,0,0,1-.24-1.29c-.07-.83.34-1.24,1.17-1.24,2.75,0,5.51,0,8.26,0,1.16,0,1.6.7,1.87,1.69q3.21,12,6.47,23.94c1.55,5.76,3.08,11.52,4.63,17.28.17.61.45,1.19.68,1.78Z"/><path class="cls-1" d="M110.39,102.59q0-13.92,0-27.85c0-2.17.57-2.75,2.74-2.75h7.2c2.23,0,2.75.5,2.75,2.71q0,22.26,0,44.51a2.71,2.71,0,0,0,.48,1.82,3.61,3.61,0,0,0,2.15.72c6.4,0,12.79,0,19.19,0,2.49,0,2.94.45,2.94,2.93,0,2,0,4.09,0,6.13,0,1.78-.63,2.39-2.4,2.39H112.93c-2,0-2.54-.58-2.54-2.51Q110.38,116.66,110.39,102.59Z"/><path class="cls-1" d="M163.19,102.61V74.37c0-1.88.48-2.38,2.32-2.38h7.59c1.94,0,2.33.37,2.33,2.34q0,12.45,0,24.91V130.4c0,.45,0,.89,0,1.34a1.4,1.4,0,0,1-1.51,1.48c-3,0-6,0-9.06,0-1.33,0-1.65-.91-1.65-2.09,0-7.32,0-14.65,0-22Z"/></g></g></svg>