<svg xmlns="http://www.w3.org/2000/svg" viewBox="0 0 60.74 60.73"><defs><style>.cls-1{fill:#0fff9b;}.cls-2{fill:#fff;}</style></defs><title>menu-mobile</title><g id="Layer_2" data-name="Layer 2"><g id="Capa_1" data-name="Capa 1"><path class="cls-1" d="M51.84,8.89a30.37,30.37,0,0,0-42.95,43,30.37,30.37,0,1,0,43-42.95ZM30.37,57.08A26.71,26.71,0,1,1,57.08,30.37,26.74,26.74,0,0,1,30.37,57.08Z"/><path class="cls-2" d="M47.08,28.54H13.66a1.83,1.83,0,1,0,0,3.66H47.08a1.83,1.83,0,0,0,0-3.66Z"/><path class="cls-2" d="M44.64,18.48H16.1a1.83,1.83,0,0,0,0,3.66H44.64a1.83,1.83,0,1,0,0-3.66Z"/><path class="cls-2" d="M44.64,38.6H16.1a1.83,1.83,0,0,0,0,3.66H44.64a1.83,1.83,0,0,0,0-3.66Z"/></g></g></svg>