<?xml version="1.0" encoding="UTF-8"?>
<svg width="86px" height="43px" viewBox="0 0 86 43" version="1.1" xmlns="http://www.w3.org/2000/svg" xmlns:xlink="http://www.w3.org/1999/xlink">
    <title>menu</title>
    <defs>
        <filter id="filter-1">
            <feColorMatrix in="SourceGraphic" type="matrix" values="0 0 0 0 0.058824 0 0 0 0 1.000000 0 0 0 0 0.607843 0 0 0 1.000000 0"></feColorMatrix>
        </filter>
    </defs>
    <g id="Page-1" stroke="none" stroke-width="1" fill="none" fill-rule="evenodd">
        <g filter="url(#filter-1)" id="menu">
            <g>
                <path d="M2.68025907,5.41465803 L83.0900363,5.41465803 C84.5696373,5.41465803 85.7702953,4.2137772 85.7702953,2.73439896 C85.7702953,1.25479793 84.5694145,0.0541398964 83.0900363,0.0541398964 L2.68025907,0.0541398964 C1.20065803,0.0541398964 0,1.25502073 0,2.73439896 C0,4.2137772 1.20088083,5.41465803 2.68025907,5.41465803 Z" id="Path" fill="#000000" fill-rule="nonzero"></path>
                <path d="M83.0900363,18.816399 L2.68025907,18.816399 C1.20065803,18.816399 0,20.0172798 0,21.496658 C0,22.9760363 1.20088083,24.1769171 2.68025907,24.1769171 L83.0900363,24.1769171 C84.5696373,24.1769171 85.7702953,22.9760363 85.7702953,21.496658 C85.7702953,20.0172798 84.5696373,18.816399 83.0900363,18.816399 Z" id="Path" fill="#000000" fill-rule="nonzero"></path>
                <path d="M83.0900363,37.578658 L29.4835181,37.578658 C28.0039171,37.578658 26.8032591,38.7795389 26.8032591,40.2589171 C26.8032591,41.7385181 28.0041399,42.9391762 29.4835181,42.9391762 L83.0900363,42.9391762 C84.5696373,42.9391762 85.7702953,41.7382953 85.7702953,40.2589171 C85.7702953,38.7793161 84.5696373,37.578658 83.0900363,37.578658 Z" id="Path" fill="#000000" fill-rule="nonzero"></path>
            </g>
        </g>
    </g>
</svg>