<?xml version="1.0" encoding="UTF-8"?>
<svg width="86px" height="44px" viewBox="0 0 86 44" version="1.1" xmlns="http://www.w3.org/2000/svg" xmlns:xlink="http://www.w3.org/1999/xlink">
    <title>Group 13</title>
    <g id="Page-1" stroke="none" stroke-width="1" fill="none" fill-rule="evenodd">
        <g id="Group-13" transform="translate(0.000000, 0.054140)" fill="#0FFF9B" fill-rule="nonzero">
            <path d="M2.68025907,5.36051813 L83.0900363,5.36051813 C84.5696373,5.36051813 85.7702953,4.1596373 85.7702953,2.68025906 C85.7702953,1.20065803 84.5694145,-2.35367281e-14 83.0900363,-2.35367281e-14 L2.68025907,-2.35367281e-14 C1.20065803,-2.35367281e-14 2.13162821e-14,1.20088083 2.13162821e-14,2.68025906 C2.13162821e-14,4.1596373 1.20088083,5.36051813 2.68025907,5.36051813 Z" id="Path"></path>
            <path d="M83.0900363,18.7622591 L2.68025907,18.7622591 C1.20065803,18.7622591 2.13162821e-14,19.9631399 2.13162821e-14,21.4425181 C2.13162821e-14,22.9218964 1.20088083,24.1227772 2.68025907,24.1227772 L83.0900363,24.1227772 C84.5696373,24.1227772 85.7702953,22.9218964 85.7702953,21.4425181 C85.7702953,19.9631399 84.5696373,18.7622591 83.0900363,18.7622591 Z" id="Path"></path>
            <path d="M83.0900363,37.5245181 L29.4835181,37.5245181 C28.0039171,37.5245181 26.8032591,38.725399 26.8032591,40.2047772 C26.8032591,41.6843782 28.0041399,42.8850363 29.4835181,42.8850363 L83.0900363,42.8850363 C84.5696373,42.8850363 85.7702953,41.6841554 85.7702953,40.2047772 C85.7702953,38.7251762 84.5696373,37.5245181 83.0900363,37.5245181 Z" id="Path"></path>
        </g>
    </g>
</svg>