<?xml version="1.0" encoding="UTF-8"?>
<svg width="30px" height="45px" viewBox="0 0 30 45" version="1.1" xmlns="http://www.w3.org/2000/svg" xmlns:xlink="http://www.w3.org/1999/xlink">
    <title>upload copy</title>
    <defs>
        <filter id="filter-1">
            <feColorMatrix in="SourceGraphic" type="matrix" values="0 0 0 0 0.058824 0 0 0 0 1.000000 0 0 0 0 0.607843 0 0 0 1.000000 0"></feColorMatrix>
        </filter>
    </defs>
    <g id="Page-1" stroke="none" stroke-width="1" fill="none" fill-rule="evenodd">
        <g filter="url(#filter-1)" id="upload-copy">
            <g>
                <path d="M16.7505988,0.906586826 C15.6982036,-0.145808383 13.9922156,-0.145808383 12.9398204,0.906586826 L0.864071856,12.9823353 C-0.188323353,14.0347305 -0.188323353,15.7407186 0.864071856,16.7931138 C1.91646707,17.8458084 3.62275449,17.845509 4.6748503,16.7931138 L12.1508982,9.31736527 L12.1508982,42.055988 C12.1508982,43.5443114 13.3571856,44.7505988 14.845509,44.7505988 C16.3338323,44.7505988 17.5401198,43.5443114 17.5401198,42.055988 L17.5401198,9.31706587 L25.0161677,16.7928144 C25.5422156,17.3191617 26.2320359,17.5820359 26.9215569,17.5820359 C27.6110778,17.5820359 28.3005988,17.3188623 28.8269461,16.7928144 C29.8793413,15.7404192 29.8793413,14.0344311 28.8269461,12.9820359 L16.7505988,0.906586826 Z" id="Path" fill="#000000" fill-rule="nonzero"></path>
            </g>
        </g>
    </g>
</svg>